<svg width="139" height="139" viewBox="0 0 139 139" fill="none" xmlns="http://www.w3.org/2000/svg">
<path d="M124.361 69.8292C124.361 69.8292 127.773 69.707 129.393 65.1824C130.72 61.4694 129.935 55.0826 126.399 54.2231C123.555 53.5375 120.746 57.132 120.483 62.9554C120.237 68.3509 123.091 69.4167 123.091 69.4167C120.87 78.2903 115.041 89.7365 107.319 97.0573C106.711 97.6303 104.728 95.5122 103.57 96.4576C96.7583 103.232 88.2347 107.892 77.5332 109.445C52.7717 113.049 34.5664 96.1157 31.7953 75.8589C29.2403 57.1606 36.1301 44.173 47.1803 36.837C60.9125 27.7189 76.4604 30.1102 76.4604 30.1102C76.4604 30.1102 78.3293 30.1293 78.3085 28.3053C78.2895 26.1929 76.5306 26.2235 76.5306 26.2235C76.5306 26.2235 59.0057 24.0003 44.7788 33.4277C32.1365 41.8066 24.498 57.7221 27.7486 76.3727C32.1953 101.928 53.3536 116.204 75.9146 113.716C104.588 110.551 120.553 87.7273 124.361 69.8292Z" fill="#1E2E92"/>
<path d="M47.6236 91.1625C48.1825 91.1625 48.8331 91.5857 49.581 92.4319C51.9864 95.0565 54.8972 97.1592 58.1357 98.6117C61.5074 100.162 64.8398 100.938 68.1327 100.939C71.769 100.939 73.5865 99.8266 73.5853 97.6019C73.5853 96.1915 72.9493 94.6008 71.6774 92.8301C70.4055 91.0593 67.3587 87.5582 62.537 82.3267C56.4765 75.7155 52.4364 70.8135 50.4166 67.6207C47.7457 63.3894 46.4102 59.3632 46.4102 55.5421C46.4102 49.7798 48.9584 45.0656 54.0548 41.3997C59.0584 37.7954 65.2271 35.9938 72.5608 35.9951C77.6877 35.9951 82.3937 37.044 86.6787 39.1417C88.1884 39.8881 89.5912 40.8365 90.8492 41.9613C92.0142 43.0294 92.5974 43.9225 92.5986 44.6406C92.5904 44.8272 92.5422 45.0098 92.4572 45.1758C92.3722 45.3419 92.2525 45.4873 92.1064 45.6022C91.8407 45.8736 91.4827 46.0331 91.1048 46.0485C90.5783 46.0485 89.8018 45.5625 88.7754 44.5906C87.0965 42.9955 84.8904 41.6722 82.1571 40.6208C79.4238 39.5693 76.798 39.0449 74.2797 39.0475C72.7229 39.0475 71.4568 39.3841 70.4812 40.0572C69.5057 40.7304 69.0198 41.6036 69.0236 42.6768C69.0236 43.9591 69.6297 45.526 70.8418 47.3775C72.0539 49.229 74.1042 51.689 76.9926 54.7574C86.1337 64.5613 91.7299 71.17 93.7815 74.5833C95.9284 78.1838 97.0013 81.6605 97 85.0136C96.9949 87.8682 96.2023 90.6652 94.7106 93.0917C93.1443 95.6738 90.9649 97.822 88.369 99.3425C83.2128 102.446 76.9201 103.996 69.4911 103.995C62.6547 103.995 56.6419 102.209 51.4526 98.6367C47.8162 96.1299 45.9987 94.1719 46 92.7628C46.0026 92.5545 46.0474 92.3489 46.1317 92.1587C46.2161 91.9685 46.3381 91.7977 46.4903 91.6568C46.6363 91.5015 46.8119 91.3776 47.0067 91.2927C47.2015 91.2077 47.4113 91.1634 47.6236 91.1625Z" fill="#3D55CC"/>
</svg>
